<mxfile host="app.diagrams.net" modified="2022-09-14T07:12:24.931Z" agent="5.0 (Windows NT 10.0; Win64; x64) AppleWebKit/537.36 (KHTML, like Gecko) Chrome/104.0.0.0 Safari/537.36" etag="Gl0Fan9Em-JuLI0x3J85" version="20.3.0" type="github">
  <diagram id="MUP_ZalKGsColjNLruBZ" name="第 1 页">
    <mxGraphModel dx="2427" dy="984" grid="1" gridSize="10" guides="1" tooltips="1" connect="1" arrows="1" fold="1" page="1" pageScale="1" pageWidth="827" pageHeight="1169" math="0" shadow="0">
      <root>
        <mxCell id="0" />
        <mxCell id="1" parent="0" />
        <mxCell id="xgw-wWkkqR9D3xWHR5XP-1" value="&lt;div style=&quot;color: rgb(101, 123, 131); background-color: rgb(253, 246, 227); font-family: &amp;quot;Comic Sans MS Cursiva&amp;quot;, &amp;quot;Comic Sans MS&amp;quot;, monospace, Consolas, &amp;quot;Courier New&amp;quot;, monospace; font-size: 16px; line-height: 22px;&quot;&gt;&lt;div style=&quot;line-height: 22px;&quot;&gt;&lt;span style=&quot;color: #268bd2;&quot;&gt;CALIB_Initial(&lt;/span&gt;&lt;span style=&quot;color: rgb(133, 153, 0);&quot;&gt;&amp;amp;&lt;/span&gt;&lt;span style=&quot;color: rgb(38, 139, 210);&quot;&gt;calib_input,&amp;nbsp;&lt;/span&gt;&lt;span style=&quot;color: rgb(133, 153, 0);&quot;&gt;&amp;amp;&lt;/span&gt;&lt;span style=&quot;color: rgb(38, 139, 210);&quot;&gt;calib_output&lt;/span&gt;&lt;span style=&quot;color: rgb(38, 139, 210);&quot;&gt;)&lt;/span&gt;&lt;/div&gt;&lt;/div&gt;" style="rounded=0;whiteSpace=wrap;html=1;" parent="1" vertex="1">
          <mxGeometry x="-60" y="520" width="370" height="90" as="geometry" />
        </mxCell>
        <mxCell id="xgw-wWkkqR9D3xWHR5XP-44" style="edgeStyle=orthogonalEdgeStyle;rounded=0;orthogonalLoop=1;jettySize=auto;html=1;exitX=1;exitY=0.5;exitDx=0;exitDy=0;entryX=1;entryY=0.5;entryDx=0;entryDy=0;" parent="1" source="xgw-wWkkqR9D3xWHR5XP-4" target="xgw-wWkkqR9D3xWHR5XP-21" edge="1">
          <mxGeometry relative="1" as="geometry">
            <mxPoint x="410" y="180" as="targetPoint" />
            <Array as="points">
              <mxPoint x="320" y="90" />
              <mxPoint x="320" y="425" />
            </Array>
          </mxGeometry>
        </mxCell>
        <mxCell id="xgw-wWkkqR9D3xWHR5XP-4" value="&lt;div style=&quot;color: rgb(101, 123, 131); background-color: rgb(253, 246, 227); font-family: &amp;quot;Comic Sans MS Cursiva&amp;quot;, &amp;quot;Comic Sans MS&amp;quot;, monospace, Consolas, &amp;quot;Courier New&amp;quot;, monospace; font-size: 16px; line-height: 22px;&quot;&gt;&lt;span style=&quot;color: #268bd2;&quot;&gt;calib_input.&lt;/span&gt;&lt;span style=&quot;color: rgb(38, 139, 210);&quot;&gt;intrinsic&lt;/span&gt;&lt;/div&gt;" style="ellipse;whiteSpace=wrap;html=1;" parent="1" vertex="1">
          <mxGeometry x="70" y="50" width="160" height="80" as="geometry" />
        </mxCell>
        <mxCell id="xgw-wWkkqR9D3xWHR5XP-45" style="edgeStyle=orthogonalEdgeStyle;rounded=0;orthogonalLoop=1;jettySize=auto;html=1;exitX=0.5;exitY=1;exitDx=0;exitDy=0;" parent="1" source="xgw-wWkkqR9D3xWHR5XP-6" target="xgw-wWkkqR9D3xWHR5XP-21" edge="1">
          <mxGeometry relative="1" as="geometry" />
        </mxCell>
        <mxCell id="xgw-wWkkqR9D3xWHR5XP-6" value="&lt;span style=&quot;font-family: &amp;quot;Comic Sans MS Cursiva&amp;quot;, &amp;quot;Comic Sans MS&amp;quot;, monospace, Consolas, &amp;quot;Courier New&amp;quot;, monospace; font-size: 16px; color: rgb(38, 139, 210);&quot;&gt;calib_input.&lt;/span&gt;&lt;span style=&quot;color: rgb(38, 139, 210); background-color: rgb(253, 246, 227); font-family: &amp;quot;Comic Sans MS Cursiva&amp;quot;, &amp;quot;Comic Sans MS&amp;quot;, monospace, Consolas, &amp;quot;Courier New&amp;quot;, monospace; font-size: 16px;&quot;&gt;extrinsic&lt;/span&gt;" style="ellipse;whiteSpace=wrap;html=1;" parent="1" vertex="1">
          <mxGeometry x="120" y="200" width="180" height="80" as="geometry" />
        </mxCell>
        <mxCell id="9-GVydj2JhlyhmZ2db7O-1" style="edgeStyle=orthogonalEdgeStyle;rounded=0;orthogonalLoop=1;jettySize=auto;html=1;exitX=0;exitY=0.5;exitDx=0;exitDy=0;entryX=-0.01;entryY=0.365;entryDx=0;entryDy=0;entryPerimeter=0;" edge="1" parent="1" source="xgw-wWkkqR9D3xWHR5XP-10" target="xgw-wWkkqR9D3xWHR5XP-13">
          <mxGeometry relative="1" as="geometry">
            <mxPoint x="-330" y="220" as="targetPoint" />
            <Array as="points">
              <mxPoint x="-290" y="80" />
              <mxPoint x="-290" y="220" />
              <mxPoint x="-263" y="220" />
            </Array>
          </mxGeometry>
        </mxCell>
        <mxCell id="xgw-wWkkqR9D3xWHR5XP-10" value="&lt;font face=&quot;Comic Sans MS Cursiva, Comic Sans MS, monospace, Consolas, Courier New, monospace&quot; color=&quot;#268bd2&quot;&gt;&lt;span style=&quot;font-size: 16px; background-color: rgb(253, 246, 227);&quot;&gt;标定.txt (&lt;/span&gt;&lt;/font&gt;&lt;span style=&quot;font-family: &amp;quot;Comic Sans MS Cursiva&amp;quot;, &amp;quot;Comic Sans MS&amp;quot;, monospace, Consolas, &amp;quot;Courier New&amp;quot;, monospace; font-size: 16px; background-color: rgb(253, 246, 227); color: rgb(38, 139, 210);&quot;&gt;&amp;amp;&lt;/span&gt;&lt;span style=&quot;color: rgb(101, 123, 131); font-family: &amp;quot;Comic Sans MS Cursiva&amp;quot;, &amp;quot;Comic Sans MS&amp;quot;, monospace, Consolas, &amp;quot;Courier New&amp;quot;, monospace; font-size: 16px; background-color: rgb(253, 246, 227);&quot;&gt;CALIB_INPUT.&lt;/span&gt;&lt;span style=&quot;font-family: &amp;quot;Comic Sans MS Cursiva&amp;quot;, &amp;quot;Comic Sans MS&amp;quot;, monospace, Consolas, &amp;quot;Courier New&amp;quot;, monospace; font-size: 16px; background-color: rgb(253, 246, 227); color: rgb(38, 139, 210);&quot;&gt;intrinsic&lt;/span&gt;&lt;font face=&quot;Comic Sans MS Cursiva, Comic Sans MS, monospace, Consolas, Courier New, monospace&quot; color=&quot;#268bd2&quot;&gt;&lt;span style=&quot;font-size: 16px; background-color: rgb(253, 246, 227);&quot;&gt;&lt;br&gt;)&lt;/span&gt;&lt;/font&gt;" style="rounded=1;whiteSpace=wrap;html=1;" parent="1" vertex="1">
          <mxGeometry x="-260" y="40" width="240" height="80" as="geometry" />
        </mxCell>
        <mxCell id="xgw-wWkkqR9D3xWHR5XP-11" value="" style="shape=flexArrow;endArrow=classic;html=1;rounded=0;" parent="1" edge="1">
          <mxGeometry width="50" height="50" relative="1" as="geometry">
            <mxPoint x="-10" y="89" as="sourcePoint" />
            <mxPoint x="60" y="89" as="targetPoint" />
          </mxGeometry>
        </mxCell>
        <mxCell id="xgw-wWkkqR9D3xWHR5XP-13" value="&lt;div style=&quot;color: rgb(101, 123, 131); background-color: rgb(253, 246, 227); font-family: &amp;quot;Comic Sans MS Cursiva&amp;quot;, &amp;quot;Comic Sans MS&amp;quot;, monospace, Consolas, &amp;quot;Courier New&amp;quot;, monospace; font-size: 16px; line-height: 22px;&quot;&gt;&lt;span style=&quot;color: #268bd2;&quot;&gt;horizon&lt;br&gt;&lt;/span&gt;&lt;div style=&quot;line-height: 22px;&quot;&gt;&lt;span style=&quot;color: #268bd2;&quot;&gt;hood&lt;br&gt;&lt;/span&gt;&lt;div style=&quot;line-height: 22px;&quot;&gt;&lt;span style=&quot;color: #268bd2;&quot;&gt;middle&lt;/span&gt; &lt;span style=&quot;color: #859900;&quot;&gt;=&lt;/span&gt; &lt;span style=&quot;color: #d33682;&quot;&gt;0&lt;/span&gt; &lt;span style=&quot;color: #859900;&quot;&gt;+&lt;/span&gt;&amp;nbsp;&lt;span style=&quot;&quot;&gt;CALIB_INPUT&lt;/span&gt;.&lt;span style=&quot;color: rgb(38, 139, 210);&quot;&gt;intrinsic&lt;/span&gt;.&lt;span style=&quot;color: rgb(38, 139, 210);&quot;&gt;cx&lt;br&gt;&lt;/span&gt;&lt;div style=&quot;line-height: 22px;&quot;&gt;&lt;span style=&quot;color: #268bd2;&quot;&gt;height&lt;br&gt;&lt;/span&gt;&lt;div style=&quot;line-height: 22px;&quot;&gt;&lt;span style=&quot;color: #268bd2;&quot;&gt;axle&lt;br&gt;&lt;/span&gt;&lt;div style=&quot;line-height: 22px;&quot;&gt;&lt;span style=&quot;color: #268bd2;&quot;&gt;bumper&lt;br&gt;&lt;/span&gt;&lt;div style=&quot;line-height: 22px;&quot;&gt;&lt;span style=&quot;color: #268bd2;&quot;&gt;width&lt;/span&gt;&lt;/div&gt;&lt;div style=&quot;line-height: 22px;&quot;&gt;&lt;div style=&quot;line-height: 22px;&quot;&gt;&lt;span style=&quot;color: #268bd2;&quot;&gt;left&lt;/span&gt;&lt;/div&gt;&lt;/div&gt;&lt;/div&gt;&lt;/div&gt;&lt;/div&gt;&lt;/div&gt;&lt;/div&gt;&lt;/div&gt;" style="rounded=1;whiteSpace=wrap;html=1;" parent="1" vertex="1">
          <mxGeometry x="-260" y="150" width="310" height="200" as="geometry" />
        </mxCell>
        <mxCell id="xgw-wWkkqR9D3xWHR5XP-18" value="&lt;span style=&quot;font-family: &amp;quot;Comic Sans MS Cursiva&amp;quot;, &amp;quot;Comic Sans MS&amp;quot;, monospace, Consolas, &amp;quot;Courier New&amp;quot;, monospace; font-size: 16px; background-color: rgb(253, 246, 227); color: rgb(38, 139, 210);&quot;&gt;in_w&lt;br&gt;&lt;/span&gt;&lt;div style=&quot;color: rgb(101, 123, 131); font-family: &amp;quot;Comic Sans MS Cursiva&amp;quot;, &amp;quot;Comic Sans MS&amp;quot;, monospace, Consolas, &amp;quot;Courier New&amp;quot;, monospace; font-size: 16px; background-color: rgb(253, 246, 227); line-height: 22px;&quot;&gt;&lt;span style=&quot;color: rgb(38, 139, 210);&quot;&gt;in_h&lt;br&gt;&lt;/span&gt;&lt;div style=&quot;line-height: 22px;&quot;&gt;&lt;span style=&quot;color: rgb(38, 139, 210);&quot;&gt;out_w&lt;br&gt;&lt;/span&gt;&lt;div style=&quot;line-height: 22px;&quot;&gt;&lt;span style=&quot;color: rgb(38, 139, 210);&quot;&gt;out_h&lt;/span&gt;&lt;/div&gt;&lt;/div&gt;&lt;/div&gt;" style="rounded=1;whiteSpace=wrap;html=1;" parent="1" vertex="1">
          <mxGeometry x="-260" y="385" width="70" height="90" as="geometry" />
        </mxCell>
        <mxCell id="xgw-wWkkqR9D3xWHR5XP-19" value="" style="shape=flexArrow;endArrow=classic;html=1;rounded=0;" parent="1" edge="1">
          <mxGeometry width="50" height="50" relative="1" as="geometry">
            <mxPoint x="60" y="240" as="sourcePoint" />
            <mxPoint x="110" y="240" as="targetPoint" />
          </mxGeometry>
        </mxCell>
        <mxCell id="xgw-wWkkqR9D3xWHR5XP-20" value="" style="shape=flexArrow;endArrow=classic;html=1;rounded=0;width=14;endSize=11.33;" parent="1" edge="1">
          <mxGeometry width="50" height="50" relative="1" as="geometry">
            <mxPoint x="-140" y="420" as="sourcePoint" />
            <mxPoint x="-70" y="420" as="targetPoint" />
          </mxGeometry>
        </mxCell>
        <mxCell id="xgw-wWkkqR9D3xWHR5XP-21" value="&lt;span style=&quot;font-family: &amp;quot;Comic Sans MS Cursiva&amp;quot;, &amp;quot;Comic Sans MS&amp;quot;, monospace, Consolas, &amp;quot;Courier New&amp;quot;, monospace; font-size: 16px; color: rgb(38, 139, 210);&quot;&gt;calib_input&lt;/span&gt;" style="ellipse;whiteSpace=wrap;html=1;" parent="1" vertex="1">
          <mxGeometry x="-10" y="385" width="180" height="80" as="geometry" />
        </mxCell>
        <mxCell id="xgw-wWkkqR9D3xWHR5XP-23" value="&lt;span style=&quot;color: rgba(0, 0, 0, 0); font-family: monospace; font-size: 0px; text-align: start;&quot;&gt;%3CmxGraphModel%3E%3Croot%3E%3CmxCell%20id%3D%220%22%2F%3E%3CmxCell%20id%3D%221%22%20parent%3D%220%22%2F%3E%3CmxCell%20id%3D%222%22%20value%3D%22%26lt%3Bspan%20style%3D%26quot%3Bfont-family%3A%20%26amp%3Bquot%3BComic%20Sans%20MS%20Cursiva%26amp%3Bquot%3B%2C%20%26amp%3Bquot%3BComic%20Sans%20MS%26amp%3Bquot%3B%2C%20monospace%2C%20Consolas%2C%20%26amp%3Bquot%3BCourier%20New%26amp%3Bquot%3B%2C%20monospace%3B%20font-size%3A%2016px%3B%20color%3A%20rgb(38%2C%20139%2C%20210)%3B%26quot%3B%26gt%3Bcalib_input.%26lt%3B%2Fspan%26gt%3B%26lt%3Bspan%20style%3D%26quot%3Bcolor%3A%20rgb(38%2C%20139%2C%20210)%3B%20background-color%3A%20rgb(253%2C%20246%2C%20227)%3B%20font-family%3A%20%26amp%3Bquot%3BComic%20Sans%20MS%20Cursiva%26amp%3Bquot%3B%2C%20%26amp%3Bquot%3BComic%20Sans%20MS%26amp%3Bquot%3B%2C%20monospace%2C%20Consolas%2C%20%26amp%3Bquot%3BCourier%20New%26amp%3Bquot%3B%2C%20monospace%3B%20font-size%3A%2016px%3B%26quot%3B%26gt%3Bextrinsic%26lt%3B%2Fspan%26gt%3B%22%20style%3D%22ellipse%3BwhiteSpace%3Dwrap%3Bhtml%3D1%3B%22%20vertex%3D%221%22%20parent%3D%221%22%3E%3CmxGeometry%20x%3D%22110%22%20y%3D%22190%22%20width%3D%22180%22%20height%3D%2280%22%20as%3D%22geometry%22%2F%3E%3C%2FmxCell%3E%3C%2Froot%3E%3C%2FmxGraphModel%3E&lt;/span&gt;" style="text;html=1;strokeColor=none;fillColor=none;align=center;verticalAlign=middle;whiteSpace=wrap;rounded=0;" parent="1" vertex="1">
          <mxGeometry x="-360" y="75" width="60" height="30" as="geometry" />
        </mxCell>
        <mxCell id="xgw-wWkkqR9D3xWHR5XP-26" value="&lt;font face=&quot;Comic Sans MS Cursiva, Comic Sans MS, monospace, Consolas, Courier New, monospace&quot; color=&quot;#268bd2&quot;&gt;&lt;span style=&quot;font-size: 16px; background-color: rgb(151, 255, 33);&quot;&gt;相机内参txt&lt;/span&gt;&lt;/font&gt;" style="text;html=1;strokeColor=none;fillColor=none;align=center;verticalAlign=middle;whiteSpace=wrap;rounded=0;" parent="1" vertex="1">
          <mxGeometry x="-270" y="10" width="100" height="30" as="geometry" />
        </mxCell>
        <mxCell id="xgw-wWkkqR9D3xWHR5XP-27" value="&lt;font face=&quot;Comic Sans MS Cursiva, Comic Sans MS, monospace, Consolas, Courier New, monospace&quot; color=&quot;#268bd2&quot;&gt;&lt;span style=&quot;font-size: 16px; background-color: rgb(151, 255, 33);&quot;&gt;外参&lt;/span&gt;&lt;/font&gt;" style="text;html=1;strokeColor=none;fillColor=none;align=center;verticalAlign=middle;whiteSpace=wrap;rounded=0;" parent="1" vertex="1">
          <mxGeometry x="-290" y="120" width="100" height="30" as="geometry" />
        </mxCell>
        <mxCell id="xgw-wWkkqR9D3xWHR5XP-38" value="&lt;div style=&quot;color: rgb(101, 123, 131); background-color: rgb(253, 246, 227); font-family: &amp;quot;Comic Sans MS Cursiva&amp;quot;, &amp;quot;Comic Sans MS&amp;quot;, monospace, Consolas, &amp;quot;Courier New&amp;quot;, monospace; font-size: 16px; line-height: 22px;&quot;&gt;&lt;div style=&quot;line-height: 22px;&quot;&gt;&lt;div style=&quot;line-height: 22px;&quot;&gt;&lt;span style=&quot;color: #268bd2;&quot;&gt;LD_Initial()&lt;/span&gt;&lt;/div&gt;&lt;/div&gt;&lt;/div&gt;" style="rounded=0;whiteSpace=wrap;html=1;" parent="1" vertex="1">
          <mxGeometry x="-60" y="660" width="370" height="90" as="geometry" />
        </mxCell>
        <mxCell id="xgw-wWkkqR9D3xWHR5XP-39" value="&lt;div style=&quot;color: rgb(101, 123, 131); background-color: rgb(253, 246, 227); font-family: &amp;quot;Comic Sans MS Cursiva&amp;quot;, &amp;quot;Comic Sans MS&amp;quot;, monospace, Consolas, &amp;quot;Courier New&amp;quot;, monospace; font-size: 16px; line-height: 22px;&quot;&gt;&lt;div style=&quot;line-height: 22px;&quot;&gt;&lt;div style=&quot;line-height: 22px;&quot;&gt;&lt;span style=&quot;color: #268bd2;&quot;&gt;LD_Release()&lt;/span&gt;&lt;/div&gt;&lt;/div&gt;&lt;/div&gt;" style="rounded=0;whiteSpace=wrap;html=1;" parent="1" vertex="1">
          <mxGeometry x="-60" y="990" width="370" height="90" as="geometry" />
        </mxCell>
        <mxCell id="xgw-wWkkqR9D3xWHR5XP-40" value="&lt;div style=&quot;color: rgb(101, 123, 131); background-color: rgb(253, 246, 227); font-family: &amp;quot;Comic Sans MS Cursiva&amp;quot;, &amp;quot;Comic Sans MS&amp;quot;, monospace, Consolas, &amp;quot;Courier New&amp;quot;, monospace; font-size: 16px; line-height: 22px;&quot;&gt;&lt;div style=&quot;line-height: 22px;&quot;&gt;&lt;div style=&quot;line-height: 22px;&quot;&gt;&lt;span style=&quot;color: #268bd2;&quot;&gt;CALIB_Release()&lt;/span&gt;&lt;/div&gt;&lt;/div&gt;&lt;/div&gt;" style="rounded=0;whiteSpace=wrap;html=1;" parent="1" vertex="1">
          <mxGeometry x="-60" y="1130" width="370" height="90" as="geometry" />
        </mxCell>
        <mxCell id="xgw-wWkkqR9D3xWHR5XP-47" value="" style="shape=flexArrow;endArrow=classic;html=1;rounded=0;" parent="1" edge="1">
          <mxGeometry width="50" height="50" relative="1" as="geometry">
            <mxPoint x="79.5" y="480" as="sourcePoint" />
            <mxPoint x="80" y="510" as="targetPoint" />
          </mxGeometry>
        </mxCell>
        <mxCell id="xgw-wWkkqR9D3xWHR5XP-49" value="" style="shape=flexArrow;endArrow=classic;html=1;rounded=0;" parent="1" edge="1">
          <mxGeometry width="50" height="50" relative="1" as="geometry">
            <mxPoint x="79.5" y="620" as="sourcePoint" />
            <mxPoint x="80" y="650" as="targetPoint" />
          </mxGeometry>
        </mxCell>
        <mxCell id="xgw-wWkkqR9D3xWHR5XP-52" value="&lt;font face=&quot;Comic Sans MS Cursiva, Comic Sans MS, monospace, Consolas, Courier New, monospace&quot; color=&quot;#268bd2&quot;&gt;&lt;span style=&quot;font-size: 16px; background-color: rgb(151, 255, 33);&quot;&gt;宽高&lt;/span&gt;&lt;/font&gt;" style="text;html=1;strokeColor=none;fillColor=none;align=center;verticalAlign=middle;whiteSpace=wrap;rounded=0;" parent="1" vertex="1">
          <mxGeometry x="-290" y="350" width="100" height="30" as="geometry" />
        </mxCell>
        <mxCell id="xgw-wWkkqR9D3xWHR5XP-55" value="&lt;span style=&quot;font-family: &amp;quot;Comic Sans MS Cursiva&amp;quot;, &amp;quot;Comic Sans MS&amp;quot;, monospace, Consolas, &amp;quot;Courier New&amp;quot;, monospace; font-size: 16px; background-color: rgb(253, 246, 227); color: rgb(38, 139, 210);&quot;&gt;LD_Detect&lt;/span&gt;&lt;span style=&quot;font-family: &amp;quot;Comic Sans MS Cursiva&amp;quot;, &amp;quot;Comic Sans MS&amp;quot;, monospace, Consolas, &amp;quot;Courier New&amp;quot;, monospace; font-size: 16px; background-color: rgb(253, 246, 227); color: rgb(38, 139, 210);&quot;&gt;()&lt;/span&gt;" style="ellipse;whiteSpace=wrap;html=1;labelBackgroundColor=#97FF21;" parent="1" vertex="1">
          <mxGeometry x="-40" y="800" width="330" height="146.25" as="geometry" />
        </mxCell>
        <mxCell id="xgw-wWkkqR9D3xWHR5XP-56" value="" style="shape=flexArrow;endArrow=classic;html=1;rounded=0;" parent="1" edge="1">
          <mxGeometry width="50" height="50" relative="1" as="geometry">
            <mxPoint x="79.28999999999999" y="760" as="sourcePoint" />
            <mxPoint x="79.78999999999999" y="790" as="targetPoint" />
          </mxGeometry>
        </mxCell>
        <mxCell id="xgw-wWkkqR9D3xWHR5XP-57" value="" style="shape=flexArrow;endArrow=classic;html=1;rounded=0;" parent="1" edge="1">
          <mxGeometry width="50" height="50" relative="1" as="geometry">
            <mxPoint x="79.28999999999996" y="950" as="sourcePoint" />
            <mxPoint x="79.78999999999996" y="980" as="targetPoint" />
          </mxGeometry>
        </mxCell>
        <mxCell id="xgw-wWkkqR9D3xWHR5XP-58" value="" style="shape=flexArrow;endArrow=classic;html=1;rounded=0;" parent="1" edge="1">
          <mxGeometry width="50" height="50" relative="1" as="geometry">
            <mxPoint x="79.28999999999996" y="1090" as="sourcePoint" />
            <mxPoint x="79.78999999999996" y="1120" as="targetPoint" />
          </mxGeometry>
        </mxCell>
      </root>
    </mxGraphModel>
  </diagram>
</mxfile>
